<?xml version="1.0" encoding="UTF-8"?>
<svg width="124px" height="144px" viewBox="0 0 124 144" version="1.1" xmlns="http://www.w3.org/2000/svg" xmlns:xlink="http://www.w3.org/1999/xlink">
    <title>Group 31</title>
    <defs>
        <polygon id="path-1" points="0 0 10 0 10 5 0 5"></polygon>
        <polygon id="path-3" points="0 0 40 0 40 17 0 17"></polygon>
        <polygon id="path-5" points="0 0 1 0 1 53 0 53"></polygon>
        <polygon id="path-7" points="0 144 124 144 124 0 0 0"></polygon>
    </defs>
    <g id="For-Dev:-Home,-About-us,-Services" stroke="none" stroke-width="1" fill="none" fill-rule="evenodd">
        <g id="About-Us---Who-We-Are----Interim" transform="translate(-648.000000, -5087.000000)">
            <g id="Footer/Main-Copy" transform="translate(0.000000, 4982.000000)">
                <g id="Group-31" transform="translate(648.000000, 105.000000)">
                    <path d="M84.7073692,59 L75.9997019,59 L68.993483,59 C68.9145275,59 68.8399101,59.031929 68.784381,59.0895787 L63.7086682,64.3827051 C63.5941393,64.5015521 63.4058607,64.5015521 63.2913318,64.3827051 L58.215619,59.0895787 C58.1600899,59.031929 58.0854725,59 58.0073847,59 L42.2926308,59 C42.0323379,59 41.9021914,59.3219512 42.0861317,59.5099778 L45.1541181,62.6461197 C45.2087797,62.7019956 45.2400148,62.7782705 45.2400148,62.8563193 L45.2400148,73.8079823 C45.2400148,73.8878049 45.27125,73.9649667 45.3259115,74.0208426 L58.0446933,86.913082 C58.0984872,86.968071 58.1731045,87 58.2503248,87 L62.4453797,87 L63.5004338,87 L64.5546203,87 L68.7496752,87 C68.8268955,87 68.9015128,86.968071 68.9561743,86.913082 L81.6749562,74.0208426 C81.72875,73.9649667 81.7599852,73.8878049 81.7599852,73.8079823 L81.7599852,62.8563193 C81.7599852,62.7782705 81.7912203,62.7019956 81.8458819,62.6461197 L84.9138683,59.5099778 C85.0978086,59.3219512 84.9676621,59 84.7073692,59 L84.7073692,59 Z M74.4561646,70.8226164 L65.8630263,79.5330377 L61.1378414,79.5330377 L52.5438354,70.8226164 L52.5438354,66.4660754 L55.061736,66.4660754 L58.0750608,69.6101996 C59.4945251,71.0895787 61.471884,71.9383592 63.5004338,71.9383592 C65.5289836,71.9383592 67.5072102,71.0886918 68.9266745,69.6075388 L71.938264,66.4660754 L74.4561646,66.4660754 L74.4561646,70.8226164 Z" id="Fill-1" fill="#8094DB"></path>
                    <polygon id="Fill-3" fill="#FFFFFF" points="58.1765232 89 61 89 61 104 45 104"></polygon>
                    <polygon id="Fill-5" fill="#FFFFFF" points="59 50.5 63.4972357 46 68.9974084 46 69 47.5412025 66.0421562 50.5 69 53.4587975 68.9974084 55 63.4972357 55"></polygon>
                    <polygon id="Fill-7" fill="#FFFFFF" points="82.5185837 106 78.8150429 106 64 106 79.7407082 119.902095 83.4451288 144 89 144 89 113.414333"></polygon>
                    <polygon id="Fill-9" fill="#FFFFFF" points="10 144 43.381706 106 61 106 17.4177653 144"></polygon>
                    <polygon id="Fill-11" fill="#FFFFFF" points="89 144 91.7271942 139 99 144"></polygon>
                    <g id="Group-15" transform="translate(0.000000, 139.000000)">
                        <mask id="mask-2" fill="white">
                            <use xlink:href="#path-1"></use>
                        </mask>
                        <g id="Clip-14"></g>
                        <polygon id="Fill-13" fill="#FFFFFF" mask="url(#mask-2)" points="10 5 10 0 -0.000431946784 5"></polygon>
                    </g>
                    <g id="Group-18" transform="translate(84.000000, 56.000000)">
                        <mask id="mask-4" fill="white">
                            <use xlink:href="#path-3"></use>
                        </mask>
                        <g id="Clip-17"></g>
                        <polygon id="Fill-16" fill="#FFFFFF" mask="url(#mask-4)" points="37.2094668 0 34.4186684 2.83348292 15.813935 2.83348292 4.65074135 2.83348292 0 7.55535611 0 17 15.813935 8.50044876 21.3955318 12.2781268 34.4186684 4.72187319 35.8145096 5.66696584 40.0002652 5.66696584 40.0002652 0"></polygon>
                    </g>
                    <polygon id="Fill-19" fill="#FFFFFF" points="14.500436 108 25 97.4592128 25 73 21.5001453 73 14.500436 80.0274832 7.50072659 73 4 73 4 97.4592128"></polygon>
                    <polygon id="Fill-21" fill="#FFFFFF" points="37.3130011 59 27 72.6356961 27 79 42 72.6356961 42 63.5449441"></polygon>
                    <g id="Group-25" transform="translate(122.000000, 0.000000)">
                        <mask id="mask-6" fill="white">
                            <use xlink:href="#path-5"></use>
                        </mask>
                        <g id="Clip-24"></g>
                        <line x1="0.5" y1="53" x2="0.5" y2="-0.000955222511" id="Stroke-23" stroke="#5B6771" stroke-width="1.232" mask="url(#mask-6)"></line>
                    </g>
                    <mask id="mask-8" fill="white">
                        <use xlink:href="#path-7"></use>
                    </mask>
                    <g id="Clip-27"></g>
                    <polygon id="Fill-26" fill="#8094DB" mask="url(#mask-8)" points="97 11 119 11 119 0 97 0"></polygon>
                    <polygon id="Fill-28" fill="#8094DB" mask="url(#mask-8)" points="90.5 11 71 11 76.5716807 16.5004356 71 22 90.5 22 97 22 97 11"></polygon>
                    <polygon id="Fill-29" fill="#8094DB" mask="url(#mask-8)" points="57.0035077 11 57 12.8825533 60.6419176 16.5004356 57 20.1174467 57.0035077 22 63.4630225 22 69 16.5004356 63.4630225 11"></polygon>
                    <polygon id="Fill-30" fill="#8094DB" mask="url(#mask-8)" points="40.0035077 11 40 12.8825533 43.6419176 16.5004356 40 20.1174467 40.0035077 22 46.4630225 22 52 16.5004356 46.4630225 11"></polygon>
                </g>
            </g>
        </g>
    </g>
</svg>